<svg xmlns="http://www.w3.org/2000/svg" width="30" height="29" fill="none"><path fill="#fff" d="M22.33 0c.57.1 1.15.17 1.71.33a8.01 8.01 0 0 1 5.04 3.93c.66 1.18.93 2.44.92 3.78v12.31c0 1.8-.53 3.44-1.7 4.86a8.31 8.31 0 0 1-6.64 3.08c-2.39.02-4.78 0-7.17 0H8.5a8.38 8.38 0 0 1-7.03-3.37 7.22 7.22 0 0 1-1.47-4.48V7.8A7.84 7.84 0 0 1 5.77.38C6.4.2 7.04.13 7.68 0h14.65ZM15 25.78h6.21a7.2 7.2 0 0 0 2.28-.27 5.32 5.32 0 0 0 3.84-5.15c.02-4.13.01-8.26.01-12.4 0-1-.21-1.94-.76-2.8a5.65 5.65 0 0 0-5.06-2.65H8.46c-.87 0-1.72.12-2.5.49-2.17 1-3.28 2.67-3.29 4.94-.02 4.15 0 8.3 0 12.43 0 1 .22 1.94.78 2.8a5.62 5.62 0 0 0 4.97 2.61H15Z"/><path fill="#fff" d="M22.74 14.16c-.04 4.06-3.55 7.32-7.79 7.28-4.25-.05-7.7-3.35-7.67-7.33.03-4 3.53-7.3 7.74-7.26 4.32.04 7.7 3.3 7.72 7.31Zm-7.77 4.76c2.81.02 5.1-2.12 5.1-4.77 0-2.63-2.25-4.76-5.07-4.77a4.93 4.93 0 0 0-5.06 4.75c-.02 2.62 2.24 4.78 5.03 4.8ZM23.03 4.74c1.06-.03 1.94.79 1.98 1.84.03.97-.86 1.84-1.9 1.86a1.92 1.92 0 0 1-2-1.81c-.03-1.02.83-1.87 1.92-1.9Z"/></svg>