<svg xmlns="http://www.w3.org/2000/svg" width="20" height="20" fill="none"><path fill="#fff" d="m0 3.92.1-.48C.2 3 .42 2.6.74 2.28 1.32 1.7 1.89 1.12 2.48.55 2.98.07 3.54-.16 4.2.12c.24.1.47.25.64.43.88.85 1.75 1.72 2.6 2.6.39.38.64.84.55 1.4-.06.43-.31.75-.6 1.05L5.92 7.06c-.26.26-.26.32-.11.65a12.4 12.4 0 0 0 2.32 3.28c.92.98 1.92 1.87 3.06 2.58.39.24.8.44 1.21.66.18.1.33.02.46-.11.51-.51 1-1.03 1.53-1.52.2-.2.44-.39.7-.5.52-.24 1.02-.13 1.48.2.11.08.22.18.32.28.83.82 1.66 1.64 2.48 2.48.2.2.38.44.5.7.25.54.15 1.09-.25 1.52-.63.7-1.3 1.38-1.99 2.04-.37.36-.86.54-1.37.63-.07 0-.13.03-.19.04h-.82l-.14-.03c-.62-.13-1.26-.2-1.85-.4A17.7 17.7 0 0 1 8.36 17a22.51 22.51 0 0 1-6.6-7.3A14.77 14.77 0 0 1 .27 6.2C.16 5.79.09 5.34 0 4.88v-.95Z"/></svg>