<svg xmlns="http://www.w3.org/2000/svg" width="101" height="60" fill="none"><path fill="url(#a)" d="m98.52 15.66 2.45-13.57A1.8 1.8 0 0 0 99.19 0H19.35c-.64 0-1.25.34-1.57.89L1.23 29.1a1.76 1.76 0 0 0 0 1.78l16.55 28.2c.32.54.93.88 1.57.88H89.58a1.8 1.8 0 0 0 1.78-1.49l2.44-13.74a1.8 1.8 0 0 0-1.77-2.1H71.14c-1.13 0-1.98-1-1.78-2.11l.3-1.55c.14-.86.9-1.47 1.77-1.47h18.2c.88 0 1.64-.63 1.81-1.49l2.07-11.67a1.8 1.8 0 0 0-1.8-2.1H74.78c-1.13 0-1.98-1-1.8-2.09l.26-1.55c.14-.86.9-1.49 1.8-1.49H96.7c.93.03 1.69-.6 1.83-1.46ZM23.34 49.65 12.36 30.89a1.76 1.76 0 0 1 0-1.78l10.98-18.76c.32-.54.93-.89 1.57-.89h22c.64 0 1.25.35 1.57.9L59.46 29.1c.32.55.32 1.23 0 1.78L48.48 49.65c-.32.54-.93.89-1.57.89h-22a1.8 1.8 0 0 1-1.57-.9Z"/><defs><linearGradient id="a" x1="10.23" x2="211.41" y1="29.99" y2="29.99" gradientUnits="userSpaceOnUse"><stop stop-color="#B8005F"/><stop offset="1" stop-color="#0FF"/></linearGradient></defs></svg>